<svg width="869" height="573" viewBox="0 0 869 573" fill="none" xmlns="http://www.w3.org/2000/svg">
<g clip-path="url(#clip0_712_513)">
<path d="M803.873 572.07L804.824 570.312C792.071 563.414 776.199 554.831 767.908 540.744C759.736 526.858 759.553 508.002 767.43 491.533C774.133 477.518 786.448 464.961 803.041 455.22C806.314 453.299 809.75 451.478 813.072 449.717C821.104 445.461 829.409 441.059 836.257 434.814C845.688 426.213 852.825 411.779 847.506 398.923C845.756 394.819 842.892 391.289 839.237 388.731C835.582 386.174 831.283 384.693 826.828 384.456L826.715 386.453C830.796 386.669 834.735 388.025 838.084 390.367C841.433 392.709 844.059 395.942 845.663 399.701C850.606 411.648 843.825 425.206 834.909 433.337C828.248 439.41 820.057 443.752 812.136 447.95C808.794 449.721 805.339 451.552 802.028 453.496C785.09 463.439 772.502 476.294 765.626 490.67C757.465 507.731 757.679 527.307 766.185 541.759C774.757 556.325 790.901 565.056 803.873 572.07Z" fill="#F1F1F1"/>
<path d="M814.152 394.997C823.817 394.997 831.652 391.191 831.652 386.497C831.652 381.802 823.817 377.997 814.152 377.997C804.487 377.997 796.652 381.802 796.652 386.497C796.652 391.191 804.487 394.997 814.152 394.997Z" fill="#F1F1F1"/>
<path d="M800.152 450.997C809.817 450.997 817.652 447.191 817.652 442.497C817.652 437.802 809.817 433.997 800.152 433.997C790.487 433.997 782.652 437.802 782.652 442.497C782.652 447.191 790.487 450.997 800.152 450.997Z" fill="#F1F1F1"/>
<path d="M832.152 459.997C841.817 459.997 849.652 456.191 849.652 451.497C849.652 446.802 841.817 442.997 832.152 442.997C822.487 442.997 814.652 446.802 814.652 451.497C814.652 456.191 822.487 459.997 832.152 459.997Z" fill="#F1F1F1"/>
<path d="M782.152 506.997C791.817 506.997 799.652 503.191 799.652 498.497C799.652 493.802 791.817 489.997 782.152 489.997C772.487 489.997 764.652 493.802 764.652 498.497C764.652 503.191 772.487 506.997 782.152 506.997Z" fill="#F1F1F1"/>
<path d="M747.152 506.997C756.817 506.997 764.652 503.191 764.652 498.497C764.652 493.802 756.817 489.997 747.152 489.997C737.487 489.997 729.652 493.802 729.652 498.497C729.652 503.191 737.487 506.997 747.152 506.997Z" fill="#F1F1F1"/>
<path d="M590.742 348.464C591.905 348.336 593.026 347.954 594.025 347.346C595.024 346.739 595.878 345.919 596.527 344.945C597.175 343.971 597.602 342.867 597.777 341.711C597.953 340.554 597.873 339.373 597.542 338.251L620.681 321.723L606.892 316.414L587.033 332.923C585.184 333.602 583.649 334.937 582.719 336.673C581.788 338.409 581.527 340.425 581.984 342.341C582.442 344.257 583.586 345.938 585.2 347.067C586.814 348.195 588.786 348.692 590.742 348.464V348.464Z" fill="#FFB7B7"/>
<path d="M603.588 337.579L595.912 324.469L596.075 324.283L627.046 289.023L651.092 248.016L671.974 250.677L672.282 256.989L672.219 257.083L639.044 306.953L639.009 306.983L603.588 337.579Z" fill="#3F3D56"/>
<path d="M597.123 347.983L555.635 371.463L525.273 317.817L566.761 294.337L597.123 347.983Z" fill="#E5E5E5"/>
<path d="M565.615 314.755L543.368 327.346L545.531 331.168L567.778 318.577L565.615 314.755Z" fill="#FFC107"/>
<path d="M571.24 324.693L548.993 337.284L551.156 341.107L573.403 328.516L571.24 324.693Z" fill="#FFC107"/>
<path d="M576.864 334.632L554.618 347.223L556.781 351.045L579.028 338.455L576.864 334.632Z" fill="#FFC107"/>
<path d="M705.915 559.425H694.107L688.489 513.877L705.917 513.878L705.915 559.425Z" fill="#FFB7B7"/>
<path d="M708.927 570.872L670.851 570.87V570.389C670.851 566.458 672.412 562.689 675.192 559.91C677.971 557.13 681.74 555.569 685.671 555.569H685.672L708.927 555.57L708.927 570.872Z" fill="#2F2E41"/>
<path d="M604.285 559.039L592.8 556.296L597.913 510.689L614.864 514.737L604.285 559.039Z" fill="#FFB7B7"/>
<path d="M604.556 570.872L567.521 562.029L567.633 561.56C568.546 557.737 570.94 554.433 574.289 552.375C577.638 550.318 581.667 549.674 585.49 550.587L585.491 550.587L608.111 555.988L604.556 570.872Z" fill="#2F2E41"/>
<path d="M650.179 227.192V207.315C650.177 203.816 650.864 200.35 652.202 197.117C653.539 193.883 655.501 190.945 657.974 188.47C660.448 185.995 663.385 184.032 666.618 182.692C669.85 181.353 673.315 180.663 676.814 180.663C680.313 180.663 683.778 181.353 687.011 182.692C690.244 184.032 693.18 185.995 695.654 188.47C698.128 190.945 700.089 193.883 701.427 197.117C702.764 200.35 703.452 203.816 703.45 207.315V227.192C703.448 228.14 703.071 229.05 702.4 229.721C701.73 230.391 700.82 230.769 699.872 230.77H653.757C652.808 230.769 651.899 230.391 651.228 229.721C650.557 229.05 650.18 228.14 650.179 227.192V227.192Z" fill="#2F2E41"/>
<path d="M670.241 230.468C681.026 230.468 689.769 221.725 689.769 210.939C689.769 200.154 681.026 191.411 670.241 191.411C659.456 191.411 650.713 200.154 650.713 210.939C650.713 221.725 659.456 230.468 670.241 230.468Z" fill="#FFB7B7"/>
<path d="M643.878 208.905C643.884 203.319 646.106 197.963 650.056 194.013C654.006 190.063 659.361 187.841 664.947 187.835H668.923C674.509 187.841 679.865 190.063 683.815 194.013C687.764 197.963 689.986 203.319 689.993 208.905V209.302H681.591L678.726 201.279L678.153 209.302H673.811L672.365 205.254L672.076 209.302H643.878V208.905Z" fill="#2F2E41"/>
<path d="M681.631 314.007L631.91 312.115L629.13 279.586C626.987 273.632 626.952 268.52 629.028 264.392C630.812 261.001 633.811 258.41 637.424 257.135L648.304 243.994C649.704 242.305 651.461 240.948 653.45 240.021C655.439 239.094 657.608 238.621 659.802 238.635L688.069 238.828C688.751 238.418 692.884 236.318 701.035 239.851C709.876 243.684 707.823 256.995 707.801 257.129L707.781 257.254L707.684 257.336L688.88 273.171L681.631 314.007Z" fill="#3F3D56"/>
<path d="M632.306 308.619L608.787 351.499L590.956 546.581L611.102 552.734L646.764 400.129L688.15 548.404L712.3 549.009L695.857 377.898L681.487 311.649L632.306 308.619Z" fill="#2F2E41"/>
<path d="M695.141 378.038C696.012 377.257 696.7 376.294 697.159 375.218C697.617 374.141 697.833 372.978 697.793 371.809C697.753 370.639 697.457 369.493 696.926 368.451C696.395 367.409 695.642 366.495 694.72 365.776L703.902 338.864L689.6 342.579L683.074 367.566C681.967 369.195 681.496 371.174 681.751 373.127C682.006 375.08 682.968 376.871 684.456 378.162C685.943 379.453 687.853 380.153 689.822 380.131C691.791 380.108 693.684 379.363 695.141 378.038Z" fill="#FFB7B7"/>
<path d="M699.242 361.707L685.367 355.522L690.029 308.576L685.69 261.237L704.214 251.237L708.141 256.188L708.144 256.301L710.225 316.161L710.214 316.207L699.242 361.707Z" fill="#3F3D56"/>
<path d="M498.162 218.162H0V0H498.162L498.162 218.162Z" fill="white"/>
<path d="M498.162 218.162H0V0H498.162L498.162 218.162ZM4.81903 213.343H493.343V4.81902H4.81903V213.343Z" fill="#E5E5E5"/>
<path d="M249.285 175.642L163.756 111.579L79.3961 174.766L77.4651 172.189L163.756 107.556L248.877 171.313L333.465 78.746L333.805 78.609L419.13 44.23L420.333 47.217L335.348 81.458L249.285 175.642Z" fill="#3F3D56"/>
<path d="M78.4302 183.137C83.765 183.137 88.0897 178.812 88.0897 173.477C88.0897 168.143 83.765 163.818 78.4302 163.818C73.0954 163.818 68.7708 168.143 68.7708 173.477C68.7708 178.812 73.0954 183.137 78.4302 183.137Z" fill="#FFC107"/>
<path d="M163.756 120.35C169.09 120.35 173.415 116.026 173.415 110.691C173.415 105.356 169.09 101.031 163.756 101.031C158.421 101.031 154.096 105.356 154.096 110.691C154.096 116.026 158.421 120.35 163.756 120.35Z" fill="#FFC107"/>
<path d="M249.081 183.137C254.416 183.137 258.741 178.812 258.741 173.477C258.741 168.143 254.416 163.818 249.081 163.818C243.746 163.818 239.422 168.143 239.422 173.477C239.422 178.812 243.746 183.137 249.081 183.137Z" fill="#FFC107"/>
<path d="M334.406 89.762C339.741 89.762 344.066 85.4373 344.066 80.1025C344.066 74.7677 339.741 70.443 334.406 70.443C329.072 70.443 324.747 74.7677 324.747 80.1025C324.747 85.4373 329.072 89.762 334.406 89.762Z" fill="#FFC107"/>
<path d="M419.732 54.3439C425.066 54.3439 429.391 50.0192 429.391 44.6844C429.391 39.3496 425.066 35.0249 419.732 35.0249C414.397 35.0249 410.072 39.3496 410.072 44.6844C410.072 50.0192 414.397 54.3439 419.732 54.3439Z" fill="#FFC107"/>
<path d="M867.132 572.679H486.132C485.867 572.679 485.613 572.574 485.425 572.386C485.238 572.199 485.132 571.945 485.132 571.679C485.132 571.414 485.238 571.16 485.425 570.972C485.613 570.785 485.867 570.679 486.132 570.679H867.132C867.397 570.679 867.652 570.785 867.839 570.972C868.027 571.16 868.132 571.414 868.132 571.679C868.132 571.945 868.027 572.199 867.839 572.386C867.652 572.574 867.397 572.679 867.132 572.679Z" fill="#CBCBCB"/>
</g>
<defs>
<clipPath id="clip0_712_513">
<rect width="868.132" height="572.679" fill="white"/>
</clipPath>
</defs>
</svg>
