<svg width="990" height="624" viewBox="0 0 990 624" fill="none" xmlns="http://www.w3.org/2000/svg">
<g clip-path="url(#clip0_712_546)">
<path d="M587.035 19.1383C658.255 -18.9687 748.647 1.00882 796.571 68.5777L794.94 69.735C747.608 3.00027 658.321 -16.7257 587.977 20.9025C582.001 24.1 576.232 27.671 570.705 31.5941C498.367 82.9004 481.257 183.491 532.563 255.829L530.932 256.986C478.988 183.75 496.31 81.9065 569.547 29.9627C575.144 25.9917 580.985 22.3764 587.035 19.1383V19.1383Z" fill="#E6E6E6"/>
<path d="M964.33 182.021L730.08 163.798C726.444 163.511 723.07 161.793 720.698 159.022C718.327 156.25 717.152 152.651 717.43 149.014L727.586 35.2007C727.873 31.5644 729.59 28.1905 732.362 25.819C735.133 23.4476 738.732 22.2723 742.369 22.5511L976.619 40.7748C980.256 41.0618 983.63 42.7795 986.001 45.551C988.372 48.3226 989.548 51.9216 989.269 55.5585L979.114 169.372C978.827 173.008 977.109 176.382 974.337 178.754C971.566 181.125 967.967 182.3 964.33 182.021Z" fill="#E6E6E6"/>
<path d="M908.997 156.309C907.219 156.309 905.435 156.24 903.644 156.101L752.256 144.324C749.229 144.088 746.278 143.259 743.572 141.883C740.865 140.507 738.456 138.612 736.483 136.305C734.509 133.998 733.008 131.325 732.068 128.438C731.127 125.551 730.764 122.508 730.999 119.481L734.452 75.1057C734.934 68.9949 737.82 63.3249 742.478 59.3396C747.135 55.3544 753.183 53.3793 759.295 53.8479L955.057 69.0774C961.168 69.5599 966.838 72.4464 970.823 77.1038C974.808 81.7611 976.783 87.809 976.315 93.9207C974.994 110.879 967.333 126.718 954.857 138.28C942.381 149.842 926.007 156.28 908.997 156.309V156.309Z" fill="white"/>
<path d="M950.373 104.354L758.467 89.4246C758.067 89.3935 757.677 89.284 757.32 89.1023C756.962 88.9205 756.644 88.6701 756.383 88.3654C756.123 88.0607 755.924 87.7077 755.8 87.3264C755.676 86.9451 755.628 86.5431 755.659 86.1433C755.69 85.7435 755.8 85.3537 755.981 84.9962C756.163 84.6388 756.414 84.3206 756.718 84.0599C757.023 83.7992 757.376 83.601 757.757 83.4768C758.139 83.3525 758.541 83.3045 758.94 83.3356L950.847 98.2651C951.247 98.2962 951.637 98.4058 951.994 98.5875C952.351 98.7693 952.67 99.0196 952.93 99.3243C953.191 99.629 953.389 99.9821 953.514 100.363C953.638 100.745 953.686 101.147 953.655 101.546C953.624 101.946 953.514 102.336 953.332 102.694C953.151 103.051 952.9 103.369 952.595 103.63C952.291 103.891 951.938 104.089 951.556 104.213C951.175 104.337 950.773 104.385 950.373 104.354Z" fill="#E6E6E6"/>
<path d="M870.689 110.258L757.531 101.455C756.724 101.392 755.975 101.01 755.449 100.395C754.922 99.7798 754.662 98.9808 754.725 98.1736C754.788 97.3664 755.169 96.6172 755.784 96.0907C756.399 95.5641 757.197 95.3034 758.005 95.3657L871.162 104.169C871.562 104.2 871.952 104.309 872.31 104.491C872.668 104.672 872.986 104.923 873.247 105.228C873.508 105.532 873.706 105.886 873.831 106.267C873.955 106.648 874.003 107.051 873.972 107.451C873.941 107.851 873.831 108.24 873.649 108.598C873.468 108.956 873.217 109.274 872.912 109.535C872.607 109.795 872.254 109.993 871.872 110.118C871.491 110.242 871.089 110.29 870.689 110.258V110.258Z" fill="#E6E6E6"/>
<path d="M895.616 124.3L756.595 113.485C756.195 113.454 755.805 113.345 755.447 113.163C755.09 112.982 754.771 112.731 754.51 112.427C754.25 112.122 754.051 111.769 753.927 111.387C753.802 111.006 753.754 110.604 753.786 110.204C753.817 109.804 753.926 109.414 754.108 109.056C754.29 108.698 754.541 108.38 754.846 108.12C755.15 107.859 755.504 107.661 755.885 107.537C756.267 107.412 756.669 107.365 757.069 107.396L896.09 118.211C896.897 118.274 897.646 118.656 898.172 119.271C898.698 119.886 898.958 120.685 898.896 121.493C898.833 122.3 898.452 123.049 897.837 123.575C897.222 124.102 896.423 124.363 895.616 124.3V124.3Z" fill="#E6E6E6"/>
<path d="M948.655 336.522L714.405 318.298C710.769 318.011 707.395 316.293 705.023 313.522C702.652 310.75 701.477 307.151 701.756 303.514L711.911 189.701C712.198 186.065 713.915 182.691 716.687 180.319C719.458 177.948 723.057 176.772 726.694 177.051L960.944 195.275C964.581 195.562 967.955 197.28 970.326 200.051C972.698 202.823 973.873 206.422 973.594 210.059L963.439 323.872C963.152 327.508 961.434 330.882 958.663 333.254C955.891 335.625 952.292 336.8 948.655 336.522V336.522Z" fill="#E6E6E6"/>
<path d="M893.262 310.807C891.509 310.807 889.745 310.738 887.969 310.601L736.581 298.824C733.554 298.588 730.603 297.759 727.897 296.383C725.19 295.007 722.781 293.112 720.807 290.805C718.833 288.498 717.333 285.825 716.392 282.938C715.452 280.051 715.089 277.008 715.324 273.981L718.776 229.606C719.012 226.579 719.841 223.628 721.217 220.921C722.593 218.215 724.489 215.806 726.796 213.832C729.103 211.858 731.776 210.358 734.663 209.417C737.549 208.476 740.593 208.113 743.62 208.348L939.382 223.578C942.409 223.813 945.36 224.643 948.067 226.019C950.773 227.395 953.182 229.29 955.156 231.597C957.13 233.904 958.63 236.577 959.571 239.464C960.512 242.35 960.875 245.394 960.639 248.421C959.299 265.382 951.623 281.218 939.139 292.777C926.654 304.337 910.276 310.773 893.262 310.807V310.807Z" fill="white"/>
<path d="M934.698 258.854L742.792 243.925C742.392 243.894 742.002 243.784 741.645 243.602C741.287 243.421 740.969 243.17 740.709 242.866C740.448 242.561 740.25 242.208 740.125 241.827C740.001 241.445 739.953 241.043 739.984 240.643C740.015 240.244 740.125 239.854 740.307 239.496C740.488 239.139 740.739 238.821 741.044 238.56C741.348 238.299 741.701 238.101 742.083 237.977C742.464 237.853 742.866 237.805 743.266 237.836L935.172 252.765C935.572 252.796 935.962 252.906 936.319 253.088C936.677 253.269 936.995 253.52 937.256 253.824C937.516 254.129 937.714 254.482 937.839 254.864C937.963 255.245 938.011 255.647 937.98 256.047C937.949 256.446 937.839 256.836 937.657 257.194C937.476 257.551 937.225 257.869 936.921 258.13C936.616 258.391 936.263 258.589 935.882 258.713C935.5 258.837 935.098 258.885 934.698 258.854V258.854Z" fill="#E6E6E6"/>
<path d="M855.014 264.758L741.856 255.955C741.456 255.924 741.066 255.815 740.708 255.633C740.351 255.452 740.032 255.201 739.771 254.896C739.51 254.592 739.312 254.238 739.188 253.857C739.063 253.476 739.015 253.073 739.046 252.673C739.077 252.273 739.187 251.884 739.369 251.526C739.551 251.168 739.801 250.85 740.106 250.589C740.411 250.329 740.764 250.131 741.146 250.006C741.527 249.882 741.93 249.834 742.33 249.866L855.487 258.669C856.295 258.732 857.044 259.113 857.57 259.729C858.096 260.344 858.356 261.143 858.293 261.95C858.231 262.758 857.85 263.507 857.235 264.033C856.62 264.56 855.821 264.821 855.014 264.758V264.758Z" fill="#E6E6E6"/>
<path d="M879.941 278.801L740.92 267.985C740.113 267.923 739.363 267.542 738.837 266.926C738.31 266.311 738.049 265.511 738.112 264.704C738.175 263.896 738.556 263.147 739.171 262.62C739.787 262.094 740.586 261.833 741.394 261.896L880.414 272.711C881.222 272.774 881.971 273.155 882.498 273.771C883.025 274.386 883.285 275.185 883.222 275.993C883.159 276.8 882.778 277.55 882.163 278.076C881.548 278.603 880.748 278.863 879.941 278.801V278.801Z" fill="#E6E6E6"/>
<path d="M352.79 277.057C349.817 270.319 348.2 263.061 348.031 255.697C347.863 248.334 349.146 241.009 351.809 234.142C354.471 227.275 358.46 220.999 363.547 215.673C368.635 210.347 374.722 206.076 381.46 203.102C388.199 200.129 395.457 198.512 402.82 198.343C410.183 198.175 417.508 199.458 424.375 202.12C431.243 204.783 437.518 208.772 442.844 213.859C448.17 218.947 452.442 225.034 455.415 231.772L453.585 232.58C450.717 226.082 446.598 220.212 441.462 215.306C436.327 210.4 430.275 206.553 423.652 203.986C417.03 201.419 409.967 200.181 402.866 200.343C395.765 200.506 388.766 202.065 382.268 204.932C375.77 207.8 369.9 211.919 364.994 217.055C360.088 222.191 356.241 228.242 353.674 234.865C351.107 241.487 349.869 248.55 350.031 255.651C350.194 262.752 351.753 269.751 354.621 276.249L352.79 277.057Z" fill="#E6E6E6"/>
<path d="M934.146 589.839C957.046 578.987 974.103 557.154 971.443 533.161C950.898 549.797 922.927 559.087 894.052 558.864C882.805 558.778 870.21 557.634 862.037 563.944C856.952 567.871 854.658 574.106 854.368 580.32C854.078 586.535 855.585 592.824 857.083 599.031L856.627 600.502C883.515 602.214 911.246 600.69 934.146 589.839Z" fill="#F2F2F2"/>
<path d="M970.879 533.101C962.022 550.383 946.666 564.788 927.582 573.219C923.401 575.17 918.949 576.478 914.376 577.099C909.72 577.585 905.015 576.97 900.64 575.303C896.492 573.815 892.404 571.877 888.005 571.287C885.852 570.987 883.659 571.123 881.56 571.689C879.46 572.255 877.497 573.239 875.786 574.582C871.721 577.743 869.297 582.117 867.1 586.48C864.661 591.325 862.217 596.398 857.44 599.7C856.861 600.1 857.667 600.932 858.245 600.532C866.555 594.788 867.755 584.4 874.358 577.443C875.911 575.687 877.842 574.304 880.005 573.4C882.169 572.496 884.508 572.093 886.85 572.221C891.339 572.552 895.556 574.548 899.744 576.086C904.002 577.768 908.571 578.518 913.143 578.285C917.753 577.879 922.266 576.731 926.51 574.886C935.737 571.045 944.279 565.73 951.801 559.149C960.111 551.962 966.972 543.253 972.013 533.491C972.319 532.894 971.183 532.508 970.879 533.101H970.879Z" fill="white"/>
<path d="M933.975 570.783C936.386 573.627 939.623 575.649 943.236 576.568C946.85 577.486 950.66 577.256 954.136 575.908C954.802 575.627 954.258 574.651 953.591 574.932C950.356 576.192 946.808 576.406 943.446 575.545C940.083 574.684 937.075 572.791 934.845 570.131C934.376 569.562 933.509 570.217 933.975 570.783V570.783Z" fill="white"/>
<path d="M902.654 576.298C903.098 572.922 904.251 569.678 906.039 566.781C907.826 563.883 910.207 561.396 913.024 559.485C913.601 559.083 912.796 558.251 912.219 558.652C909.292 560.647 906.82 563.24 904.967 566.259C903.114 569.278 901.922 572.656 901.47 576.17C901.388 576.839 902.573 576.964 902.654 576.297L902.654 576.298Z" fill="white"/>
<path d="M958.752 551.228C957.651 550.382 956.784 549.268 956.234 547.993C955.684 546.718 955.469 545.323 955.609 543.941C955.7 543.274 954.515 543.15 954.424 543.814C954.276 545.341 954.516 546.88 955.12 548.29C955.725 549.7 956.674 550.935 957.882 551.88C957.991 551.988 958.133 552.055 958.285 552.072C958.437 552.088 958.59 552.052 958.72 551.971C958.776 551.928 958.822 551.873 958.854 551.81C958.887 551.747 958.905 551.678 958.909 551.607C958.912 551.536 958.899 551.466 958.872 551.4C958.845 551.335 958.804 551.276 958.752 551.228V551.228Z" fill="white"/>
<path d="M895.888 482.431C895.817 482.845 895.746 483.26 895.667 483.678C894.687 489.235 893.19 494.688 891.195 499.966C891.048 500.377 890.892 500.791 890.732 501.196C885.688 513.976 878.017 525.555 868.215 535.183C864.222 539.117 859.915 542.719 855.337 545.954C848.956 550.47 841.591 554.881 837.553 560.965C837.125 561.592 836.741 562.249 836.405 562.93L854.599 599.742C854.686 599.811 854.764 599.883 854.851 599.952L855.505 601.446C855.758 601.293 856.016 601.129 856.269 600.977C856.416 600.889 856.559 600.792 856.706 600.704C856.803 600.643 856.9 600.581 856.992 600.531C857.024 600.511 857.056 600.49 857.079 600.473C857.171 600.423 857.25 600.367 857.332 600.32C858.778 599.41 860.219 598.488 861.654 597.555C861.664 597.552 861.664 597.552 861.669 597.54C872.582 590.404 882.846 582.341 891.279 573.037C891.532 572.757 891.795 572.475 892.04 572.178C895.789 567.997 899.146 563.481 902.069 558.687C903.644 556.08 905.067 553.384 906.331 550.612C909.575 543.452 911.496 535.765 912.004 527.921C913.031 512.209 908.37 495.962 896.783 483.385C896.486 483.063 896.193 482.749 895.888 482.431Z" fill="#F2F2F2"/>
<path d="M895.422 482.682C900.49 502.115 898.744 522.612 890.164 540.052C888.379 543.925 885.921 547.45 882.903 550.463C879.67 553.425 875.697 555.458 871.403 556.346C867.29 557.319 862.917 557.88 859.225 559.751C857.413 560.658 855.842 561.981 854.64 563.612C853.437 565.242 852.638 567.134 852.307 569.133C851.403 574.006 852.549 579.023 853.858 583.908C855.311 589.333 856.916 594.953 855.574 600.329C855.412 600.981 856.579 601.252 856.741 600.601C859.074 591.249 852.94 581.792 853.175 572.33C853.284 567.915 854.893 563.613 858.992 561.166C862.577 559.027 867.086 558.446 871.262 557.493C875.482 556.673 879.437 554.833 882.782 552.133C885.969 549.29 888.585 545.866 890.489 542.044C894.855 533.623 897.661 524.482 898.772 515.061C900.104 504.131 899.345 493.047 896.535 482.401C896.36 481.73 895.249 482.015 895.422 482.682H895.422Z" fill="white"/>
<path d="M893.301 534.54C900.786 536.884 908.726 534.079 911.864 528.017C912.173 527.42 911.105 526.885 910.795 527.483C907.855 533.162 900.507 535.709 893.511 533.518C892.774 533.287 892.569 534.31 893.301 534.54V534.54Z" fill="white"/>
<path d="M873.584 556.103C871.668 553.212 870.359 549.961 869.737 546.549C869.116 543.136 869.194 539.633 869.967 536.252C870.127 535.6 868.96 535.328 868.801 535.98C868.004 539.501 867.93 543.147 868.585 546.698C869.24 550.248 870.61 553.628 872.611 556.633C873.003 557.246 873.974 556.712 873.584 556.103Z" fill="white"/>
<path d="M898.614 504.595C897.144 504.429 895.729 503.941 894.47 503.166C893.211 502.39 892.138 501.347 891.328 500.109C890.944 499.494 889.974 500.028 890.355 500.639C891.255 502.003 892.442 503.155 893.832 504.014C895.221 504.874 896.782 505.421 898.404 505.617C898.726 505.656 899.027 505.543 899.092 505.242C899.11 505.094 899.07 504.944 898.981 504.824C898.893 504.703 898.761 504.622 898.614 504.595V504.595Z" fill="white"/>
<path d="M934.511 328.466L920.592 254.37L893.268 218.405L873.019 231.644C875.88 247.163 897.524 276.135 897.524 276.135L916.708 333.44C916.632 333.737 916.561 334.038 916.509 334.347C916.205 336.16 916.373 338.021 916.998 339.75C917.623 341.478 918.684 343.017 920.077 344.216C921.47 345.415 923.149 346.234 924.952 346.595C926.755 346.956 928.62 346.845 930.367 346.274C932.114 345.703 933.685 344.692 934.927 343.336C936.169 341.981 937.041 340.328 937.457 338.538C937.874 336.747 937.822 334.88 937.305 333.115C936.789 331.351 935.827 329.75 934.511 328.466V328.466Z" fill="#FFB8B8"/>
<path d="M873.562 239.473L896.488 220.865L896.531 220.767C900.819 211.051 891.299 194.39 882.557 182.125C879.672 178.083 875.359 175.288 870.491 174.304C865.623 173.32 860.563 174.221 856.334 176.825C853.227 178.768 850.726 181.54 849.112 184.829C847.499 188.118 846.837 191.793 847.203 195.439L849.131 214L873.562 239.473Z" fill="#3F3D56"/>
<path d="M792.539 608.221L777.285 608.22L770.029 549.384L792.542 549.385L792.539 608.221Z" fill="#FFB8B8"/>
<path d="M796.43 603.24L792.137 603.24L775.374 596.423L766.39 603.239H766.389C761.312 603.24 756.443 605.257 752.853 608.847C749.262 612.437 747.245 617.306 747.245 622.383V623.005L796.429 623.007L796.43 603.24Z" fill="#2F2E41"/>
<path d="M860.222 608.221L844.968 608.22L837.712 549.384L860.225 549.385L860.222 608.221Z" fill="#FFB8B8"/>
<path d="M864.113 603.24L859.82 603.24L843.057 596.423L834.073 603.239H834.072C828.995 603.24 824.126 605.257 820.536 608.847C816.946 612.437 814.929 617.306 814.928 622.383V623.005L864.112 623.007L864.113 603.24Z" fill="#2F2E41"/>
<path d="M883.481 354.795C883.481 354.795 885.262 376.169 880.809 396.652C876.357 417.135 876.357 474.822 876.357 474.822L866.56 587.234L837.172 584.562L829.156 396.652L800.658 459.882L803.33 468.788L799.771 471.014C799.771 471.014 802.439 488.381 800.658 488.381C798.877 488.381 794.424 491.052 794.424 491.052L797.987 582.781L767.707 581.89L757.021 452.758L768.598 378.841L769.488 364.592L773.496 364.756L775.537 358.803L779.285 348.561L883.481 354.795Z" fill="#2F2E41"/>
<path d="M885.021 359.285L885.179 359.062C893.656 347.194 880.907 318.676 878.984 314.542L887.083 311.914L885.259 296.411L884.395 289.5L890.585 283.309L890.603 283.155L894.165 251.985L899.344 231.283C901.296 223.456 901.13 215.251 898.862 207.511C896.595 199.77 892.309 192.772 886.444 187.235L874.471 175.946L859.922 154.418H836.458L828.413 169.614C820.613 171.417 813.693 175.898 808.858 182.279C804.022 188.659 801.579 196.534 801.952 204.53L803.776 244.385L796.638 294.008L796.633 302.989L788.601 311.916L790.355 320.687L784.241 323.307L781.542 335.903C780.425 337.378 773.051 347.209 773.051 349.897C773.051 350.301 773.349 350.691 773.988 351.124C779.013 354.526 806.788 361.463 819.08 356.544C832.174 351.309 884.226 359.163 884.75 359.243L885.021 359.285Z" fill="#3F3D56"/>
<path d="M680.979 622.646C680.979 622.96 681.103 623.263 681.325 623.486C681.546 623.709 681.848 623.835 682.162 623.836H962.46C962.775 623.836 963.078 623.71 963.301 623.487C963.524 623.264 963.65 622.961 963.65 622.646C963.65 622.33 963.524 622.027 963.301 621.804C963.078 621.581 962.775 621.456 962.46 621.456H682.17C681.855 621.455 681.553 621.579 681.33 621.801C681.106 622.023 680.98 622.324 680.979 622.639V622.646Z" fill="#CCCCCC"/>
<path d="M845.159 147.468C862.321 147.468 876.233 133.555 876.233 116.393C876.233 99.2315 862.321 85.3189 845.159 85.3189C827.997 85.3189 814.084 99.2315 814.084 116.393C814.084 133.555 827.997 147.468 845.159 147.468Z" fill="#FFB8B8"/>
<path d="M842.182 147.971C846.994 147.922 851.794 147.462 856.528 146.596C861.215 145.516 871.555 137.52 874.374 132.796C876.468 129.286 877.724 123.858 878.41 119.922C879.336 114.713 879.157 109.368 877.886 104.233C876.615 99.0972 874.279 94.286 871.031 90.1106C869.778 88.3614 868.077 86.9832 866.105 86.1218C865.931 86.0587 865.752 86.0035 865.571 85.957C862.713 85.2835 860.122 83.7713 858.131 81.6145C857.744 81.1779 857.326 80.7697 856.881 80.3931C854.646 78.604 852.02 77.3692 849.217 76.7895C844.688 75.7019 838.211 77.0647 829.964 80.8436C825.82 82.7421 821.222 82.2125 817.678 81.5389C817.479 81.5058 817.275 81.5253 817.086 81.5955C816.897 81.6657 816.73 81.7841 816.601 81.9389C815.138 83.3855 813.181 84.2246 811.125 84.2875C809.866 84.3754 808.59 86.1539 807.051 88.4699C806.702 88.9956 806.294 89.6092 805.998 89.9836L805.939 89.2805L805.247 90.0845C804.159 91.3481 803.408 92.8666 803.064 94.4986C802.721 96.1305 802.796 97.8229 803.283 99.418C803.769 101.013 804.652 102.459 805.848 103.621C807.044 104.784 808.515 105.624 810.123 106.065C811.399 106.37 812.703 106.543 814.014 106.583C814.809 106.633 815.631 106.686 816.421 106.802C818.957 107.254 821.333 108.355 823.317 109.999C825.301 111.643 826.824 113.774 827.739 116.182C827.955 116.739 828.296 117.238 828.736 117.642C829.175 118.046 829.702 118.344 830.275 118.512C830.848 118.68 831.452 118.714 832.04 118.612C832.628 118.51 833.185 118.273 833.667 117.922C834.47 117.263 835.42 116.808 836.436 116.596C837.453 116.383 838.505 116.42 839.504 116.702C840.373 117.157 841.059 117.896 841.448 118.796C841.918 119.798 842.676 120.637 843.624 121.206C846.86 122.77 847.268 130.057 846.278 136.165C845.324 142.054 843.249 146.349 841.231 146.611C839.678 146.812 839.503 146.927 839.397 147.206L839.303 147.455L839.483 147.681C840.352 147.971 841.272 148.07 842.182 147.971V147.971Z" fill="#2F2E41"/>
<path d="M500.674 308.143C534.8 308.143 562.464 280.479 562.464 246.354C562.464 212.228 534.8 184.564 500.674 184.564C466.549 184.564 438.885 212.228 438.885 246.354C438.885 280.479 466.549 308.143 500.674 308.143Z" fill="#FFC107"/>
<path d="M835.025 237.158L814.643 224.124C801.664 233.101 784.124 264.726 784.124 264.726L739.732 305.738C737.882 306.056 736.149 306.854 734.707 308.055C733.264 309.255 732.164 310.813 731.515 312.574C730.867 314.335 730.693 316.236 731.013 318.085C731.332 319.934 732.133 321.666 733.335 323.107C734.537 324.548 736.097 325.647 737.859 326.293C739.62 326.939 741.521 327.11 743.37 326.789C745.218 326.467 746.949 325.664 748.389 324.46C749.829 323.257 750.926 321.695 751.57 319.933L813.438 276.833L835.025 237.158Z" fill="#FFB8B8"/>
<path d="M833.081 242.447L846.656 209.868L841.746 191.863C840.769 188.332 838.824 185.145 836.131 182.661C833.438 180.177 830.103 178.496 826.505 177.808V177.808C821.621 176.908 816.577 177.896 812.393 180.573C808.21 183.249 805.199 187.415 803.969 192.226C800.251 206.822 797.396 225.797 804.905 233.307L804.981 233.383L833.081 242.447Z" fill="#3F3D56"/>
<path d="M42.5582 604.984C15.9862 591.346 -3.29243 564.989 0.738152 536.824C24.319 557.188 56.9225 569.177 90.9468 569.993C104.199 570.311 119.079 569.434 128.471 577.173C134.315 581.989 136.785 589.42 136.894 596.751C137.003 604.083 134.994 611.435 132.997 618.692L133.479 620.442C101.74 621.454 69.1302 618.623 42.5582 604.984Z" fill="#F2F2F2"/>
<path d="M1.40437 536.774C11.1927 557.464 28.7445 575.006 50.911 585.651C55.764 588.105 60.96 589.813 66.323 590.715C71.7901 591.462 77.3563 590.913 82.5721 589.113C87.5136 587.514 92.4022 585.384 97.6061 584.854C100.154 584.58 102.732 584.823 105.184 585.568C107.636 586.313 109.913 587.545 111.878 589.191C116.548 593.066 119.24 598.309 121.666 603.532C124.358 609.33 127.048 615.398 132.552 619.466C133.219 619.958 132.238 620.909 131.572 620.416C121.997 613.339 120.972 601.058 113.453 592.615C109.944 588.675 104.994 585.743 98.9324 585.997C93.6319 586.219 88.5889 588.413 83.598 590.068C78.5191 591.89 73.1088 592.603 67.7314 592.158C62.3164 591.507 57.042 589.987 52.1118 587.655C41.3854 582.786 31.5216 576.206 22.9061 568.172C13.3847 559.395 5.62812 548.88 0.0538042 537.191C-0.284316 536.477 1.06848 536.064 1.4044 536.774H1.40437Z" fill="white"/>
<path d="M43.4712 582.543C37.6461 589.187 27.3939 591.433 19.5301 587.827C18.7554 587.472 19.433 586.342 20.2088 586.697C23.9718 588.303 28.1432 588.688 32.1365 587.799C36.1299 586.91 39.7441 584.792 42.4711 581.742C43.0441 581.089 44.041 581.893 43.4712 582.543V582.543Z" fill="white"/>
<path d="M80.1622 590.209C79.7657 586.216 78.528 582.352 76.5306 578.871C74.5332 575.391 71.8213 572.373 68.5736 570.016C67.9089 569.521 68.8892 568.571 69.5531 569.065C72.9275 571.524 75.7424 574.671 77.8123 578.297C79.8823 581.923 81.1602 585.947 81.562 590.103C81.6335 590.895 80.2333 590.996 80.1622 590.209V590.209Z" fill="white"/>
<path d="M15.0136 558.581C16.3425 557.626 17.4052 556.346 18.1009 554.864C18.7965 553.383 19.1021 551.748 18.9886 550.115C18.9057 549.325 20.3061 549.224 20.3885 550.009C20.5057 551.813 20.1663 553.617 19.4017 555.256C18.6371 556.894 17.4719 558.313 16.0138 559.382C15.8814 559.505 15.7116 559.579 15.5319 559.592C15.3522 559.606 15.1732 559.558 15.0239 559.457C14.9595 559.404 14.9074 559.338 14.8713 559.263C14.8352 559.187 14.816 559.105 14.815 559.022C14.814 558.938 14.8313 558.856 14.8656 558.78C14.8999 558.704 14.9504 558.636 15.0136 558.581H15.0136Z" fill="white"/>
<path d="M91.6386 479.884C91.7063 480.374 91.774 480.865 91.8521 481.361C92.7988 487.944 94.3588 494.424 96.5117 500.716C96.6692 501.205 96.8372 501.699 97.0106 502.182C102.476 517.425 111.081 531.352 122.267 543.061C126.824 547.845 131.763 552.249 137.035 556.23C144.384 561.788 152.896 567.26 157.426 574.578C157.907 575.333 158.334 576.121 158.704 576.936L135.896 619.622C135.791 619.7 135.697 619.781 135.592 619.859L134.766 621.595C134.474 621.406 134.176 621.203 133.883 621.014C133.713 620.905 133.548 620.786 133.378 620.677C133.267 620.601 133.155 620.525 133.049 620.462C133.011 620.437 132.974 620.411 132.948 620.39C132.841 620.328 132.751 620.259 132.655 620.201C130.986 619.074 129.323 617.934 127.667 616.782C127.656 616.778 127.656 616.778 127.651 616.764C115.061 607.95 103.271 598.068 93.6844 586.793C93.3961 586.454 93.0969 586.111 92.819 585.752C88.5595 580.687 84.7735 575.242 81.5086 569.485C79.7503 566.355 78.1745 563.126 76.7892 559.814C73.2359 551.258 71.2592 542.13 70.9544 532.871C70.3306 514.323 76.4281 495.358 90.5484 480.974C90.9099 480.606 91.2665 480.247 91.6386 479.884Z" fill="#F2F2F2"/>
<path d="M92.1778 480.197C85.482 502.901 86.7735 527.111 96.2304 547.977C98.1881 552.606 100.953 556.85 104.395 560.512C108.092 564.123 112.697 566.666 117.722 567.872C122.531 569.173 127.662 569.996 131.941 572.339C134.042 573.475 135.843 575.092 137.199 577.058C138.555 579.024 139.426 581.282 139.741 583.649C140.623 589.423 139.086 595.29 137.362 600.997C135.447 607.333 133.347 613.894 134.726 620.277C134.894 621.05 133.509 621.326 133.342 620.554C130.943 609.449 138.522 598.538 138.599 587.383C138.635 582.178 136.901 577.05 132.163 574.014C128.02 571.36 122.73 570.507 117.845 569.229C112.905 568.106 108.314 565.79 104.474 562.485C100.827 559.017 97.8733 554.885 95.7722 550.312C90.9434 540.228 87.9792 529.354 87.0229 518.216C85.8614 505.29 87.1694 492.261 90.8772 479.824C91.1085 479.04 92.4076 479.417 92.1778 480.197L92.1778 480.197Z" fill="white"/>
<path d="M92.7399 541.366C83.8352 543.849 74.5862 540.248 71.1157 532.989C70.7738 532.274 72.0526 531.684 72.3949 532.4C75.6463 539.2 84.2072 542.475 92.5311 540.154C93.4071 539.91 93.6109 541.123 92.7399 541.366Z" fill="white"/>
<path d="M115.162 567.505C117.527 564.17 119.191 560.39 120.05 556.393C120.91 552.397 120.949 548.267 120.164 544.255C120 543.48 121.385 543.204 121.549 543.977C122.356 548.155 122.306 552.454 121.402 556.612C120.498 560.77 118.758 564.701 116.289 568.166C115.804 568.872 114.68 568.208 115.162 567.505H115.162Z" fill="white"/>
<path d="M87.5997 505.892C89.3371 505.751 91.0221 505.229 92.5347 504.363C94.0472 503.496 95.3501 502.307 96.3505 500.88C96.8252 500.169 97.9486 500.834 97.4769 501.541C96.3651 503.113 94.9245 504.426 93.255 505.386C91.5855 506.347 89.7271 506.933 87.8085 507.104C87.4276 507.138 87.0777 506.993 87.012 506.637C86.9964 506.461 87.0486 506.286 87.1579 506.148C87.2672 506.009 87.4252 505.918 87.5997 505.892V505.892Z" fill="white"/>
<path d="M172.025 265.948L174.027 284.513L172.849 308.857L226.771 302.451L231.838 265.948L225.382 266.011L172.025 265.948Z" fill="#FFB6B6"/>
<path d="M144.057 603.005H155.846L161.457 557.533H144.057V603.005Z" fill="#FFB6B6"/>
<path d="M140.21 594.93L159.044 593.806V601.875L176.951 614.242C177.835 614.853 178.501 615.73 178.852 616.747C179.202 617.763 179.219 618.864 178.899 619.89C178.579 620.916 177.939 621.813 177.074 622.45C176.208 623.087 175.161 623.431 174.086 623.431H151.663L147.798 615.449L146.289 623.431H137.835L140.21 594.93Z" fill="#2F2E41"/>
<path d="M210.278 603.005H222.067L227.677 557.533H210.278V603.005Z" fill="#FFB6B6"/>
<path d="M206.431 594.93L225.265 593.806V601.875L243.171 614.242C244.056 614.853 244.722 615.73 245.072 616.747C245.423 617.763 245.439 618.864 245.12 619.89C244.8 620.916 244.16 621.813 243.294 622.45C242.429 623.087 241.382 623.431 240.307 623.431H217.884L214.019 615.449L212.51 623.431H204.056L206.431 594.93Z" fill="#2F2E41"/>
<path d="M138.971 563.792H139.099L141.366 489.856C139.899 487.026 139.154 483.877 139.199 480.689C139.243 477.502 140.075 474.375 141.62 471.586L141.944 470.999L141.103 467.097C140.022 462.085 140.518 456.861 142.523 452.141L144.638 383.173C137.082 334.2 173.094 302.262 173.094 302.262H227.04L238.622 342.054C246.278 416.649 244.889 489.34 232.739 559.765L233.071 559.932C234.263 560.344 234.775 561.996 234.213 563.623C233.652 565.249 232.23 566.234 231.037 565.822L202.547 564.831C201.355 564.42 200.843 562.767 201.405 561.141C201.966 559.514 203.388 558.53 204.581 558.941L206.518 559.921L202.387 488.576L202.845 475.544L201.9 460.76L197.533 394.261L181.004 476.036L164.119 564.615C164.585 565.036 164.912 565.589 165.057 566.201C165.202 566.812 165.158 567.453 164.931 568.039C164.704 568.624 164.305 569.128 163.786 569.482C163.267 569.836 162.653 570.025 162.025 570.023H138.971C138.561 570.024 138.155 569.944 137.777 569.787C137.398 569.631 137.054 569.402 136.764 569.112C136.474 568.823 136.244 568.479 136.087 568.101C135.93 567.722 135.85 567.317 135.85 566.907C135.85 566.498 135.93 566.092 136.087 565.714C136.244 565.335 136.474 564.992 136.764 564.702C137.054 564.413 137.398 564.183 137.777 564.027C138.155 563.871 138.561 563.791 138.971 563.792V563.792Z" fill="#2F2E41"/>
<path d="M181.441 170.948C197.421 170.948 210.376 157.993 210.376 142.012C210.376 126.032 197.421 113.077 181.441 113.077C165.46 113.077 152.505 126.032 152.505 142.012C152.505 157.993 165.46 170.948 181.441 170.948Z" fill="#FFB6B6"/>
<path d="M54.6475 275.692C58.7142 266.251 64.2986 257.54 71.1794 249.903C65.3528 259.189 62.0229 269.822 61.5122 280.773C63.6216 282.09 65.8288 283.245 68.1144 284.226C74.9831 287.107 82.3066 288.752 89.7475 289.086C93.758 275.724 100.68 263.418 110.016 253.052C103.288 263.781 99.9045 276.27 100.296 288.928C108.596 288.211 116.773 286.459 124.638 283.712C136.446 279.65 147.908 273.583 156.074 264.146C164.912 253.933 169.268 240.456 170.675 227.02C172.082 213.596 170.759 200.045 169.426 186.609C168.796 180.206 174.128 172.838 173.499 166.435H173.079C170.276 162.593 167.421 158.657 166.046 154.102C164.681 149.557 165.038 144.193 168.177 140.614C169.935 138.744 172.154 137.368 174.611 136.625C174.842 136.331 175.094 136.048 175.356 135.765C180.109 130.716 185.703 126.532 191.888 123.4C187.427 126.769 184.446 130.579 183.061 134.515C186.923 133.665 190.786 132.819 194.649 131.975C195.94 130.606 197.299 129.303 198.721 128.071C200.789 126.276 201.471 126.139 203.938 124.449C201.947 126.201 200.403 128.404 199.435 130.873C204.4 129.624 209.365 127.745 211.947 123.473C216.229 116.409 211.139 106.878 204.033 102.659C198.863 99.7387 192.907 98.5172 187.006 99.1671C181.105 99.8169 175.557 102.305 171.147 106.28C160.871 98.712 146.239 98.838 134.809 104.496C127.262 108.398 120.762 114.052 115.852 120.986C118.7 120.62 121.567 120.42 124.438 120.387C120.396 120.979 116.548 122.502 113.196 124.838C111.714 127.14 110.354 129.519 109.124 131.965C108.316 133.571 107.553 135.198 106.836 136.846C102.438 146.859 99.5722 157.524 96.6017 168.062C93.1379 180.343 89.4221 192.708 82.9353 203.697C72.9894 220.408 57.2999 232.926 38.7978 238.913C37.2549 252.8 44.0355 266.382 54.6475 275.692Z" fill="#2F2E41"/>
<path d="M210.58 190.298L204.964 188.189L197.882 176.739L172.657 178.8L166.526 191.077L151.756 202.357L158.215 236.375L168.25 277.697L235.427 269.3L235.356 238.194C235.356 238.194 247.496 213.618 227.887 204.409L210.58 190.298Z" fill="#FFC107"/>
<path d="M314.127 298.198C312.823 298.721 311.42 298.953 310.017 298.875C308.613 298.798 307.244 298.414 306.006 297.75C304.767 297.086 303.689 296.159 302.848 295.034C302.006 293.908 301.422 292.612 301.135 291.236L226.233 245.913L239.924 230.117L309.245 279.635C311.588 279.308 313.97 279.851 315.94 281.162C317.909 282.473 319.329 284.46 319.931 286.749C320.533 289.037 320.274 291.466 319.204 293.576C318.135 295.686 316.328 297.331 314.127 298.198V298.198Z" fill="#FFB6B6"/>
<path d="M201.275 224.421C201.275 224.421 197.695 228.023 206.677 233.945C213.868 238.686 245.941 262.115 257.31 265.821C257.168 267.491 257.585 269.161 258.497 270.568C259.408 271.974 260.761 273.038 262.343 273.591L272.638 250.969C270.409 245.797 266.845 246.995 264.97 248.167L252.537 238.817L222.007 208.331L203.816 221.772L201.275 224.421Z" fill="#FFC107"/>
<path d="M171.331 107.067C167.853 112.199 165.606 118.065 164.765 124.207C163.924 130.349 164.512 136.603 166.483 142.481" fill="#FD6584"/>
<path d="M24.5313 622.646C24.5308 622.802 24.5613 622.957 24.6209 623.102C24.6805 623.246 24.7682 623.378 24.8788 623.488C24.9894 623.599 25.1208 623.687 25.2654 623.746C25.41 623.806 25.5649 623.836 25.7213 623.836H306.011C306.327 623.836 306.63 623.71 306.853 623.487C307.076 623.264 307.201 622.961 307.201 622.646C307.201 622.33 307.076 622.027 306.853 621.804C306.63 621.581 306.327 621.456 306.011 621.456H25.7213C25.5649 621.455 25.41 621.486 25.2654 621.545C25.1208 621.605 24.9894 621.693 24.8788 621.803C24.7682 621.914 24.6805 622.045 24.6209 622.19C24.5613 622.334 24.5308 622.489 24.5313 622.646V622.646Z" fill="#CCCCCC"/>
<path d="M131.322 352.172C130.623 352.418 130.051 352.931 129.73 353.599C129.409 354.266 129.366 355.034 129.611 355.733L168.661 468.283C168.907 468.981 169.42 469.554 170.087 469.875C170.755 470.195 171.522 470.238 172.221 469.994L399.442 390.272C400.14 390.026 400.713 389.513 401.033 388.845C401.354 388.178 401.397 387.41 401.152 386.711L362.102 274.161C361.856 273.462 361.343 272.89 360.675 272.569C360.008 272.248 359.24 272.206 358.541 272.45L131.322 352.172Z" fill="#E6E6E6"/>
<path d="M188.834 453.75C184.362 453.749 180.001 452.363 176.349 449.783C172.697 447.202 169.933 443.554 168.438 439.34L146.993 378.664C145.083 373.26 145.397 367.319 147.868 362.147C150.339 356.975 154.762 352.996 160.166 351.086L275.006 310.497C296.503 302.926 320.126 304.191 340.691 314.016C361.256 323.84 377.085 341.42 384.704 362.901C386.614 368.305 386.299 374.246 383.829 379.418C381.358 384.59 376.934 388.569 371.53 390.479L371.364 390.007L371.53 390.479L196.015 452.514C193.709 453.331 191.281 453.749 188.834 453.75V453.75Z" fill="white"/>
<path d="M341.124 334.144L238.296 370.222C236.847 370.731 235.052 369.372 234.285 367.189C233.519 365.005 234.072 362.823 235.521 362.314L338.35 326.236C339.798 325.728 341.594 327.086 342.36 329.27C343.126 331.454 342.574 333.638 341.124 334.144Z" fill="#E6E6E6"/>
<path d="M349.077 356.814L246.249 392.892C244.8 393.4 243.005 392.042 242.238 389.858C241.472 387.674 242.026 385.492 243.474 384.984L346.303 348.906C347.751 348.397 349.547 349.756 350.313 351.939C351.08 354.123 350.526 356.306 349.077 356.814Z" fill="#E6E6E6"/>
<path d="M224.382 382.556C225.486 385.668 226.023 388.952 225.966 392.253C225.944 393.764 225.795 395.27 225.52 396.755C224.643 401.554 222.515 406.037 219.35 409.749C216.186 413.462 212.097 416.274 207.497 417.899C202.898 419.525 197.95 419.907 193.156 419.008C188.361 418.108 183.888 415.959 180.191 412.776C179.817 412.457 179.454 412.127 179.1 411.787C176.081 408.893 173.755 405.353 172.299 401.432C170.843 397.511 170.293 393.311 170.692 389.148C171.091 384.984 172.427 380.965 174.601 377.392C176.774 373.818 179.729 370.784 183.243 368.515C186.757 366.247 190.739 364.804 194.89 364.294C199.042 363.784 203.255 364.221 207.213 365.572C211.171 366.923 214.773 369.153 217.746 372.095C220.72 375.036 222.988 378.613 224.382 382.556V382.556Z" fill="#E4E4E4"/>
<path d="M199.419 396.018C202.344 396.018 204.714 393.647 204.714 390.722C204.714 387.798 202.344 385.427 199.419 385.427C196.495 385.427 194.124 387.798 194.124 390.722C194.124 393.647 196.495 396.018 199.419 396.018Z" fill="#FD6584"/>
<path d="M179.1 411.787C180.46 408.632 182.066 403.819 185.788 405.571C187.627 406.368 190.92 408.79 192.257 405.973L202.726 384.057C202.925 383.649 203.203 383.284 203.544 382.984C203.886 382.684 204.284 382.456 204.715 382.312C205.146 382.168 205.601 382.112 206.054 382.147C206.507 382.182 206.949 382.307 207.353 382.515L225.966 392.253C225.944 393.764 225.795 395.27 225.52 396.755L180.191 412.776L179.1 411.787Z" fill="#3F3D56"/>
<path d="M184.503 347.065C183.194 346.555 182.012 345.765 181.04 344.75C180.069 343.734 179.332 342.518 178.882 341.187C178.431 339.856 178.278 338.442 178.433 337.046C178.588 335.649 179.048 334.303 179.779 333.103L156.083 248.824L176.873 246.652L193.628 330.179C195.562 331.541 196.93 333.565 197.471 335.868C198.013 338.171 197.691 340.593 196.566 342.674C195.441 344.756 193.592 346.352 191.369 347.161C189.146 347.971 186.703 347.936 184.503 347.065V347.065Z" fill="#FFB6B6"/>
<path d="M152.578 202.56C152.578 202.56 147.503 202.742 150.011 213.204C152.019 221.579 159.394 274.121 165.16 284.597C163.915 285.719 163.078 287.223 162.782 288.873C162.486 290.522 162.747 292.224 163.524 293.709L186.5 284.232C188.408 278.934 186.931 274.124 184.76 273.698L182.076 258.375L178.12 206.971L156.243 202.363L152.578 202.56Z" fill="#FFC107"/>
<path d="M359.557 424.309L327.781 425.625C327.102 425.654 326.425 425.53 325.801 425.261C325.178 424.991 324.623 424.584 324.179 424.07C323.74 423.569 323.421 422.975 323.245 422.333C323.069 421.691 323.04 421.018 323.162 420.363C325.6 407.066 324.889 393.383 321.087 380.411C320.793 379.418 320.853 378.355 321.255 377.402C321.658 376.449 322.379 375.665 323.295 375.184C336.31 368.422 348.506 368.079 359.54 374.164C360.119 374.478 360.621 374.914 361.014 375.443C361.406 375.971 361.678 376.579 361.812 377.224C364.684 391.38 365.373 405.892 363.854 420.256C363.749 421.337 363.255 422.343 362.465 423.088C361.676 423.833 360.642 424.267 359.557 424.309Z" fill="#FFC107"/>
<path d="M358.212 403.511L333.916 404.517C333.616 404.53 333.317 404.484 333.036 404.381C332.754 404.278 332.496 404.12 332.275 403.917C332.054 403.715 331.876 403.47 331.75 403.198C331.624 402.926 331.552 402.632 331.54 402.333C331.528 402.033 331.574 401.734 331.678 401.453C331.781 401.172 331.938 400.913 332.142 400.693C332.345 400.472 332.589 400.294 332.861 400.168C333.133 400.042 333.427 399.971 333.727 399.959L358.023 398.953C358.323 398.94 358.622 398.987 358.903 399.09C359.184 399.193 359.442 399.351 359.663 399.554C359.883 399.757 360.061 400.001 360.187 400.273C360.313 400.544 360.385 400.838 360.397 401.138C360.409 401.437 360.363 401.736 360.26 402.017C360.157 402.298 359.999 402.556 359.796 402.777C359.593 402.997 359.349 403.176 359.077 403.302C358.805 403.428 358.512 403.499 358.212 403.511V403.511Z" fill="white"/>
<path d="M357.881 395.518L333.584 396.524C332.98 396.549 332.39 396.333 331.945 395.924C331.5 395.514 331.236 394.944 331.211 394.34C331.186 393.735 331.402 393.145 331.812 392.7C332.221 392.255 332.791 391.991 333.396 391.966L357.692 390.96C358.297 390.935 358.887 391.151 359.332 391.561C359.777 391.97 360.041 392.54 360.066 393.145C360.091 393.749 359.875 394.339 359.465 394.784C359.055 395.229 358.486 395.493 357.881 395.518V395.518Z" fill="white"/>
<path d="M940.714 175.736L909.181 171.6C908.507 171.513 907.861 171.275 907.293 170.903C906.724 170.531 906.247 170.035 905.897 169.452C905.551 168.884 905.338 168.244 905.274 167.582C905.21 166.919 905.298 166.25 905.529 165.626C910.205 152.942 911.844 139.339 910.315 125.907C910.195 124.879 910.436 123.842 910.996 122.972C911.555 122.101 912.399 121.452 913.384 121.135C927.364 116.697 939.439 118.445 949.27 126.326C949.787 126.735 950.207 127.251 950.504 127.839C950.8 128.426 950.964 129.072 950.985 129.729C951.395 144.168 949.593 158.584 945.64 172.477C945.352 173.524 944.694 174.431 943.788 175.03C942.883 175.63 941.79 175.88 940.714 175.736V175.736Z" fill="#FFC107"/>
<path d="M942.945 155.015L918.834 151.852C918.537 151.813 918.251 151.716 917.991 151.567C917.732 151.417 917.504 151.218 917.322 150.98C917.139 150.743 917.005 150.471 916.928 150.182C916.85 149.893 916.83 149.591 916.869 149.294C916.908 148.997 917.005 148.711 917.155 148.451C917.304 148.192 917.504 147.964 917.741 147.782C917.979 147.599 918.25 147.465 918.539 147.388C918.829 147.31 919.13 147.29 919.427 147.329L943.538 150.491C944.138 150.57 944.682 150.884 945.051 151.363C945.419 151.843 945.582 152.45 945.503 153.05C945.425 153.649 945.111 154.194 944.631 154.562C944.151 154.931 943.545 155.093 942.945 155.015V155.015Z" fill="white"/>
<path d="M943.986 147.083L919.875 143.92C919.577 143.882 919.29 143.785 919.03 143.636C918.77 143.486 918.542 143.287 918.359 143.049C918.176 142.812 918.042 142.54 917.964 142.251C917.886 141.961 917.866 141.659 917.905 141.361C917.944 141.064 918.041 140.777 918.191 140.517C918.341 140.258 918.541 140.03 918.779 139.848C919.017 139.665 919.289 139.531 919.579 139.454C919.868 139.377 920.171 139.357 920.468 139.397L944.579 142.559C944.876 142.598 945.163 142.694 945.423 142.844C945.683 142.993 945.911 143.193 946.094 143.43C946.277 143.668 946.411 143.939 946.489 144.229C946.567 144.519 946.587 144.821 946.548 145.118C946.509 145.416 946.412 145.702 946.262 145.962C946.112 146.222 945.912 146.449 945.674 146.632C945.436 146.814 945.165 146.948 944.875 147.025C944.585 147.103 944.283 147.122 943.986 147.083Z" fill="white"/>
<path d="M520.674 236.854H510.174V226.354C510.174 223.834 509.173 221.418 507.392 219.636C505.61 217.854 503.194 216.854 500.674 216.854C498.155 216.854 495.738 217.854 493.957 219.636C492.175 221.418 491.174 223.834 491.174 226.354V236.854H480.674C478.155 236.854 475.738 237.854 473.957 239.636C472.175 241.418 471.174 243.834 471.174 246.354C471.174 248.873 472.175 251.289 473.957 253.071C475.738 254.853 478.155 255.854 480.674 255.854H491.174V266.354C491.174 268.873 492.175 271.289 493.957 273.071C495.738 274.853 498.155 275.854 500.674 275.854C503.194 275.854 505.61 274.853 507.392 273.071C509.173 271.289 510.174 268.873 510.174 266.354V255.854H520.674C523.194 255.854 525.61 254.853 527.392 253.071C529.173 251.289 530.174 248.873 530.174 246.354C530.174 243.834 529.173 241.418 527.392 239.636C525.61 237.854 523.194 236.854 520.674 236.854V236.854Z" fill="white"/>
<path d="M860.709 42.5348C866.238 42.5348 870.721 38.0525 870.721 32.5233C870.721 26.9942 866.238 22.5119 860.709 22.5119C855.18 22.5119 850.698 26.9942 850.698 32.5233C850.698 38.0525 855.18 42.5348 860.709 42.5348Z" fill="#3F3D56"/>
<path d="M245.709 325.535C251.238 325.535 255.721 321.052 255.721 315.523C255.721 309.994 251.238 305.512 245.709 305.512C240.18 305.512 235.698 309.994 235.698 315.523C235.698 321.052 240.18 325.535 245.709 325.535Z" fill="#3F3D56"/>
</g>
<defs>
<clipPath id="clip0_712_546">
<rect width="989.311" height="623.836" fill="white"/>
</clipPath>
</defs>
</svg>
